<svg xmlns="http://www.w3.org/2000/svg" viewBox="0 0 354.85 210"><defs><style>.cls-1{fill:#fff;}</style></defs><g id="Layer_2" data-name="Layer 2"><g id="Layer_1-2" data-name="Layer 1"><g id="Layer_2-2" data-name="Layer 2"><g id="Layer_1-2-2" data-name="Layer 1-2"><path class="cls-1" d="M47.82,210h-12a7.22,7.22,0,0,0-2-1.05C23.1,207,16.31,200.7,12.89,190.53a74.68,74.68,0,0,1-3-9.49c-3.43-17.57-7-35.15-9.76-52.83C-.46,124.53,1,120,3,116.59c2.33-4,6-7.4,9.39-10.77,8.85-8.81,18-17.35,26.79-26.19,18.22-18.28,36.31-36.69,54.5-55A70.83,70.83,0,0,1,99.42,20c1.18,7.14,2.09,13.21,3.21,19.24,1,5.51.74,10.53-2.36,15.63-5,8.22-9.37,16.82-13.77,25.38-3.36,6.54-6.34,13.28-9.93,20.85L261.76,69.65c-13.47-13.08-25.9-25.05-38.18-37.19-2.17-2.15-4.63-4.74-5.28-7.52-1.94-8.21-3.05-16.61-4.48-24.94h2c6,3.09,11.83,6.32,17.86,9.24C267.07,25.41,300.4,41.73,334,57.44c7.07,3.3,9.89,8.13,11,15.11,1.54,10.17,3.09,20.36,4.93,30.48,1.4,7.7,3.27,15.32,4.92,23v11c-4.65,16.4-17,23.07-32.52,25.74-29.45,5.08-58.86,10.45-88.39,15.06-22,3.43-35.39-6.91-39.11-28.91-1.79-10.61-3.57-21.23-5.43-32.26l-27.76,4.45c.69,3.7,1.4,6.77,1.83,9.87,1.59,11.49,4.1,23,4.37,34.5.33,13.6-8,22.83-21.39,25.52-21.18,4.25-42.48,8-63.71,12C71.06,205.22,59.45,207.66,47.82,210Zm91.5-98.8L22,131.18a5.74,5.74,0,0,0-.21,1Q26.42,160,31,187.78c.52,3.1,2.64,3.3,5.27,2.84q54.3-9.35,108.61-18.55c3.1-.52,4.47-1.61,3.91-4.85C145.65,148.74,142.54,130.25,139.32,111.2ZM325.2,79.55l-117.56,20c.15,1.79.16,3,.36,4.09q4.26,24.84,8.57,49.66c1.11,6.35,1.34,6.36,7.78,5.24,16.88-2.92,33.77-5.76,50.65-8.63l55.08-9.36c3.1-.52,5.41-1.25,4.7-5.28C331.56,117,328.47,98.61,325.2,79.55Z"/><path class="cls-1" d="M81.59,127.61a23.18,23.18,0,0,1,23.51,22.85v.45A23.47,23.47,0,0,1,82,174.77h-.54a23.83,23.83,0,0,1-23.66-23.45,23.57,23.57,0,0,1,23.43-23.71Zm7.08,23.24A7.11,7.11,0,0,0,81.52,144a6.82,6.82,0,0,0-6.71,6.91,1.93,1.93,0,0,1,0,.24,7.14,7.14,0,0,0,6.77,6.71A7.28,7.28,0,0,0,88.67,150.85Z"/><path class="cls-1" d="M270.46,143.36a23.66,23.66,0,1,1,1.19-47.31c12.91.44,23.37,11.34,23.1,24a23.67,23.67,0,0,1-24,23.32Zm.55-16.74a6.72,6.72,0,0,0,6.83-6.59c0-.14,0-.27,0-.41a6.45,6.45,0,0,0-7-6.67c-4.21.14-6.31,2.63-6.61,6.59a6.69,6.69,0,0,0,6.27,7.07H271Z"/></g></g></g></g></svg>