<svg xmlns="http://www.w3.org/2000/svg" viewBox="0 0 913.62 391"><defs><style>.cls-1{fill:#fcfcfc;}.cls-2{fill:#fafafa;}.cls-3{fill:#fbfbfb;}.cls-4{fill:#f83035;}.cls-5{fill:#fa3036;}.cls-6{fill:#f93036;}.cls-7{fill:#f72f35;}.cls-8{fill:#f8f8f8;}</style></defs><g id="Layer_2" data-name="Layer 2"><g id="Layer_1-2" data-name="Layer 1"><path class="cls-1" d="M179.25,391c-.24-.81-.22-1.93-.76-2.37-6.85-5.54-13.69-11.12-20.79-16.35-1.46-1.07-4-1-6-1-7.13,0-14.41,1.2-21.37.18-18.13-2.66-28.58-14.28-31-33.31a128.31,128.31,0,0,1-1-15.92c-.11-28.15-.41-56.32.17-84.46a77.79,77.79,0,0,1,4.82-24.71c4.89-13.35,15.75-20,29.58-22.13,2.27-.34,4.56-.6,6.91-.91-3.46-20-6.54-39.75-10.38-59.3-1.62-8.26,2.2-13.81,7.23-18.87q45.13-45.33,90.57-90.37a8.41,8.41,0,0,1,1.69-.89c1.49,8.71,3.08,17.12,4.26,25.59.25,1.75-.74,3.83-1.59,5.54-8.07,16.36-16.24,32.68-24.9,50L389.2,70.71C383,64,376.76,57.22,370.36,50.55c-3.57-3.72-7-7.73-11.22-10.64-10.76-7.46-13.86-18.33-14.82-30.4-.26-3.18-.7-6.34-1.06-9.51h2c.72.87,1.25,2.11,2.17,2.55q48.48,23.31,97,46.48c7.47,3.58,14.86,7.3,22.33,10.86,4.54,2.16,6.47,6,7.25,10.65,2.79,16.56,5.68,33.11,8.26,49.7.86,5.53,1.88,11.31,1.15,16.75C481.6,150.8,471.7,160.45,458,162.8q-49.42,8.46-98.87,16.76c-15.33,2.56-30.94-8.59-33.91-24.22-2.32-12.24-4.28-24.55-6.54-37.63l-27.2,4.55c2,12,4,23.76,5.89,35.53,2.34,14.74-2.66,25.4-15.43,33.33-.53.33-1,.75-2.23,1.68h7.7v4.83c0,43.66.12,87.31-.13,131a71.27,71.27,0,0,1-3,19.09c-3.51,12.16-12,20.19-24.25,22.65a74.79,74.79,0,0,1-24.73,1c-18.87-2.68-29.42-15.15-31-34.74-.36-4.3-.52-8.64-.53-13q-.06-55.74,0-111.47V206.1l-25.06,4.23c6.09,12.82,5.64,26.16,5.6,39.48q-.14,36.49,0,73c0,11.29-1.49,22.19-7.16,32.46l20.16,16.05c-4.43,5.28-8.73,10.3-12.87,15.43a22.49,22.49,0,0,0-2.16,4.27ZM150.81,132c.2,1.85.28,3.32.53,4.75,2.9,16.85,6,33.66,8.61,50.54.69,4.43,2.67,5.09,6.4,4.45q54-9.32,107.93-18.49c3.28-.56,4.79-1.48,4.18-5.06-3.2-18.6-6.27-37.23-9.47-56.32ZM454.88,80.25,336.5,100.4c3.16,18.4,6.43,36.35,9.22,54.38.74,4.8,2.43,6.05,7.11,5.23,34-5.95,68.1-11.66,102.13-17.55,10-1.73,10.09-1.91,8.43-12C460.68,113.91,457.8,97.42,454.88,80.25ZM231.4,201.31c-.06,1.09-.14,1.9-.14,2.71q0,62.21,0,124.4a35.08,35.08,0,0,0,1,7.9c1.72,7.42,6.59,11.24,13.83,11.11,6.92-.13,11.6-4.07,13-11.38a48.74,48.74,0,0,0,.9-9.42q.09-62.19,0-124.4v-5.74Zm-75.16,80.06c0-15.33,0-30.66,0-46a40.3,40.3,0,0,0-1-8.4c-1.67-7.57-6.78-11.78-14-11.79-6.81,0-12.12,4.24-13.84,11.44a38,38,0,0,0-1.12,8.88q-.12,46,0,92a36.19,36.19,0,0,0,1.7,10.25c2.09,6.79,7,10,13.89,9.72s11.55-3.85,13.19-10.72a41.6,41.6,0,0,0,1.09-9.38C156.3,312,156.24,296.69,156.24,281.37Z"/><path class="cls-2" d="M409.14,193.6c16.26,0,32.5-1.23,48.47.32,19.49,1.89,28.91,11.66,31.08,31.05,1.22,10.78.46,22-.8,32.79-1.07,9.19-6,16.81-15.7,21.29,12.26,6.49,15,17.26,15.25,29.14.46,20.41.79,40.82,1.17,61.42H462.29c-.4-8.26-1-16.33-1.16-24.42-.34-13-.07-26-.8-38.91-.67-12-4.74-15.33-16.75-15.43-2.29,0-4.58,0-7.3,0v78.78H409.14Zm27.33,74.16c3.81,0,7.47.36,11-.08,8-1,12.78-5,13.48-12.94a175.4,175.4,0,0,0,.14-26.83c-.42-6.49-4.93-10.76-11.16-11.7-4.36-.67-8.84-.6-13.49-.88Z"/><path class="cls-3" d="M396.11,369.64H367.39l-7-46.86H333.5c-2.06,15.59-4.11,31.05-6.2,46.77h-28c9.46-58.73,18.9-117.38,28.4-176.36h38.85C376.37,251.69,386.19,310.35,396.11,369.64ZM357,297l-9.76-75.73-.48.12c-3.19,25.12-6.39,50.24-9.62,75.61Z"/><path class="cls-2" d="M509.39,369.54V193.13h68.1v25.29H537.08v45.27h38.11v25.22H537v55.33h44.59c-1.18,8.74-2.27,16.88-3.4,25.3Z"/><path class="cls-4" d="M846.06,321.34h13.85a98.27,98.27,0,0,0,.07,10.31c.57,5.43.89,11,2.54,16.15,2.79,8.69,9.67,12.55,19.54,12.19,8.32-.31,14.1-4.73,16.39-13.49a75.39,75.39,0,0,0-.13-39.47c-3-11-11.48-18-19.87-25-6.39-5.3-12.89-10.58-18.61-16.57-6.14-6.44-8.73-14.7-9.74-23.56-1.19-10.58-.74-21,2.41-31.12,4.47-14.41,14.4-20.63,31.09-20,14.28.56,23.09,7.62,26.06,22.15,1.55,7.56,1.54,15.43,2.27,23.56h-13.2c-.48-6.29-.64-12.43-1.46-18.48-1.55-11.51-8.62-16.77-19.73-15.2-6.32.89-10.54,4.67-12.11,10.47-4.81,17.78-4.9,38.12,12.8,51.11,5.63,4.13,10.94,8.72,16.31,13.19,11.58,9.63,18.75,21.74,19,37,.17,10.42.18,21-1.54,31.26-3,17.72-15,26.57-32.87,26.08s-29-9.88-31.61-27.73C846.47,336.88,846.54,329.37,846.06,321.34Z"/><path class="cls-5" d="M777.41,193.05h55.06v11.74H790.62v63.78h39.46v12.19h-39.5v76.57h44.77c-.51,3.83-.83,7.21-1.51,10.51a3.2,3.2,0,0,1-2.35,1.91c-17.94.11-35.88.08-54.08.08Z"/><path class="cls-6" d="M621.34,369.55V193.13h54.78v11.71h-41.6v63.85h39.41v12.06H634.45v76.57h44.81c-.67,4.32-1.25,8.15-1.88,12.23Z"/><path class="cls-7" d="M764.88,192.83c-3.42,11.24-6.57,21.71-9.79,32.17-7.15,23.18-14.39,46.34-21.43,69.56a35.12,35.12,0,0,0-1.44,9.78c-.12,19.82-.06,39.64-.06,59.46v5.73H718.69V364.3c0-19.65.1-39.31-.08-59a42,42,0,0,0-1.74-11.73c-9.78-32.3-19.76-64.53-29.67-96.79-.33-1.09-.59-2.2-1.07-4,4.3,0,8.26-.28,12.13.16,1.19.14,2.71,2.11,3.12,3.51q11.58,40,22.91,80c.4,1.42.84,2.83,1.45,4.91,4.28-15.2,8.35-29.72,12.45-44.23,3.75-13.27,7.64-26.51,11.23-39.82.92-3.41,2.26-5.14,6.06-4.65C758.24,193.11,761.09,192.83,764.88,192.83Z"/><path class="cls-3" d="M0,317.76H28.08c0,4.06-.16,7.86.05,11.65a49.16,49.16,0,0,0,1.23,9.85c1.63,6.22,6.18,9.52,12.38,9.57s10.86-3.27,12.17-9.73c3.37-16.67,2.13-32.21-12.55-43.84C36,291,31,286.32,25.53,282.28c-19.13-14.1-24.68-33.36-21.8-56,.14-1.15.3-2.31.46-3.46,3.88-29,37.14-43.55,61.39-26.8,8.07,5.57,12,13.77,13.31,23.11,1,7.36,1.09,14.86,1.6,22.67H52.39c0-5.07.08-10,0-15a24.82,24.82,0,0,0-1-5.37c-1.2-4.69-4-7.49-9.1-7.66s-8.87,2.2-10,7.16c-3.55,15.44-2,27.44,9.72,36.6,6,4.71,12,9.47,18,14.22,13.92,11,22.65,24.95,22.66,43,0,10.22-.46,20.71-2.73,30.61-3.67,15.92-16.5,25.62-32.86,26.51a72,72,0,0,1-16.41-.6c-17.29-3.07-27-13.23-29.27-30.63C.44,333.31.46,325.78,0,317.76Z"/><path class="cls-8" d="M210.71,128.84a23.3,23.3,0,1,1,.25,46.6c-12.88,0-23.75-10.8-23.57-23.45A23.57,23.57,0,0,1,210.71,128.84Zm.18,15.95c-4.21.05-7,3-6.85,7.37a6.81,6.81,0,0,0,7,6.83,6.88,6.88,0,0,0,7.21-7.19C218.2,147.59,215.21,144.74,210.89,144.79Z"/><path class="cls-8" d="M400.78,144.15A23.41,23.41,0,0,1,377.11,121c-.22-12.72,10.21-23.47,23.14-23.85,12.25-.36,23.55,10.7,23.83,23.31S413.48,144.06,400.78,144.15ZM407.49,121c.09-4.55-2.4-7.15-6.89-7.22s-7.21,2.71-7.21,7a6.8,6.8,0,0,0,6.74,7.11A6.69,6.69,0,0,0,407.49,121Z"/></g></g></svg>