<svg xmlns="http://www.w3.org/2000/svg" viewBox="0 0 462.16 462.16"><defs><style>.cls-1{fill:#373837;}.cls-2{fill:#383837;}.cls-3{fill:#e6e6e6;}.cls-4{fill:#3b3b3a;}.cls-5{fill:#3c3c3b;}.cls-6{fill:#dcdcdc;}.cls-7{fill:#dedede;}</style></defs><g id="Layer_2" data-name="Layer 2"><g id="Layer_1-2" data-name="Layer 1"><path class="cls-1" d="M229.37,462.07c-61.31,0-122.62-.08-183.93.07-13,0-24.45-3.5-33.4-13.13C5.14,441.6.57,432.89.43,422.45s-.95-20.71.11-30.91a112.69,112.69,0,0,1,10.18-36.2,113.84,113.84,0,0,1,24.75-34.93c18.22-17.19,39.75-28.42,64.88-30.27,21.19-1.56,42.55-1,63.83-1.34a12.51,12.51,0,0,1,4.74,1.28q62.57,26.25,125.11,0a14.25,14.25,0,0,1,5.25-1.24c18.16,0,36.37-.81,54.47.29,33.58,2,61.31,16.33,82.8,42.48,13.17,16,21.83,34.26,24.32,54.67a176,176,0,0,1,.18,41.1c-2.23,19.64-21.8,35-42.74,34.82-34.15-.33-68.31-.09-102.46-.09Z"/><path class="cls-2" d="M81.1,125C80.19,114,79,103.07,78.45,92.1,77.75,78.39,89.32,66.16,103.64,65c4.29-.36,8.6-.42,12.86-1a6.43,6.43,0,0,0,3.63-2.38c6.93-8.48,13-17.79,20.73-25.46,19.08-18.94,42.32-30,68.94-34.32,29.2-4.76,56.76-.1,82.8,13.46,18.33,9.54,33.26,23.23,45.19,40.07a7.71,7.71,0,0,0,6.73,3.7c6.64.45,13.47.85,19.79,2.71,11.2,3.3,15.15,12.63,15.88,23.23,1.06,15.37,1.27,30.8,2.17,46.18.48,8.05-3.42,13.5-9.3,18.05-2.72,2.11-5.61,4-8.47,5.95A21.21,21.21,0,0,0,355.9,167c-16.69,50.34-50.78,82.19-103.35,91.06-47.57,8-87.79-7.71-120.15-43.57-11.65-12.92-19.57-27.79-25-44.23-1-2.93-3.57-5.63-6-7.69a102.27,102.27,0,0,0-13.71-9.66c-5.12-3-6.84-7.64-7.28-12.89-.41-5-.08-10-.08-15Zm119.67,7.93c0-16.81,0-33.06,0-49.32,0-3.18-2.23-3.61-4.84-3.53-8,.27-15.94.52-23.91.68q-34.68.7-69.34,1.31c-3.67.07-5.55,1.36-5.3,5.38.33,5.14.35,10.3.37,15.45,0,10.59,0,21.19,0,32.29Zm162.66-3.53c0-16.91.09-33.37-.2-49.81,0-1.06-3-3-4.55-3-31.12.57-62.24,1.43-93.37,2.07-3.87.08-5.26,1.27-5.11,5.27.39,10.49.33,21,.57,31.47.11,5.4.46,10.79.71,16.15Z"/><path class="cls-3" d="M200.77,132.89l-103,2.26c0-11.1,0-21.7,0-32.29,0-5.15,0-10.31-.37-15.45-.25-4,1.63-5.31,5.3-5.38q34.66-.59,69.34-1.31c8-.16,15.94-.41,23.91-.68,2.61-.08,4.83.35,4.84,3.53C200.79,99.83,200.77,116.08,200.77,132.89Zm-30.32-25.36a20.48,20.48,0,0,0-20.59-20.62,20.58,20.58,0,0,0-.05,41.15A20.41,20.41,0,0,0,170.45,107.53Z"/><path class="cls-3" d="M363.43,129.36l-101.95,2.2c-.25-5.36-.6-10.75-.71-16.15-.24-10.49-.18-21-.57-31.47-.15-4,1.24-5.19,5.11-5.27,31.13-.64,62.25-1.5,93.37-2.07,1.57,0,4.53,1.89,4.55,3C363.52,96,363.43,112.45,363.43,129.36ZM315.63,125a20.36,20.36,0,0,0,20.66-19.94,20.77,20.77,0,0,0-20.76-21,20.34,20.34,0,0,0-20.23,20.36C295.19,116.15,303.88,125,315.63,125Z"/><path class="cls-4" d="M170.45,107.53a20.41,20.41,0,0,1-20.64,20.53,20.58,20.58,0,0,1,.05-41.15A20.48,20.48,0,0,1,170.45,107.53Zm-26.39,1.39c-.09,2.47,2.17,4.23,5.76,4.52a6,6,0,1,0,.12-12C146.32,101.48,144.2,103.64,144.06,108.92Z"/><path class="cls-5" d="M315.63,125c-11.75-.08-20.44-8.89-20.33-20.61a20.34,20.34,0,0,1,20.23-20.36,20.77,20.77,0,0,1,20.76,21A20.36,20.36,0,0,1,315.63,125ZM315.47,111c3.51-.31,5.85-2,5.94-5.85s-1.79-6-5.53-6.31c-3.42-.3-6.73,2.72-6.5,6C309.64,108.39,311.7,110.51,315.47,111Z"/><path class="cls-6" d="M144.06,108.92c.14-5.28,2.26-7.44,5.88-7.43a6,6,0,1,1-.12,12C146.23,113.15,144,111.39,144.06,108.92Z"/><path class="cls-7" d="M315.47,111c-3.77-.45-5.83-2.57-6.09-6.15-.23-3.29,3.08-6.31,6.5-6,3.74.33,5.62,2.65,5.53,6.31S319,110.65,315.47,111Z"/></g></g></svg>